# Blender v2.82 (sub 7) OBJ File: 'Pown.blend'
# www.blender.org
mtllib Pown.mtl
o Pawn_Cylinder
v 0.000000 -0.000000 -0.015000
v 0.000000 0.013675 -0.007259
v 0.010607 -0.000000 -0.010607
v 0.005133 0.013675 -0.005133
v 0.015000 -0.000000 -0.000000
v 0.007259 0.013675 -0.000000
v 0.010607 -0.000000 0.010607
v 0.005133 0.013675 0.005133
v -0.000000 -0.000000 0.015000
v -0.000000 0.013675 0.007259
v -0.010607 -0.000000 0.010607
v -0.005133 0.013675 0.005133
v -0.015000 -0.000000 -0.000000
v -0.007259 0.013675 -0.000000
v -0.010607 -0.000000 -0.010607
v -0.005133 0.013675 -0.005133
v 0.000000 0.010962 -0.009697
v 0.006857 0.010962 -0.006857
v 0.009697 0.010962 -0.000000
v 0.006857 0.010962 0.006857
v -0.000000 0.010962 0.009697
v -0.006857 0.010962 0.006857
v -0.009697 0.010962 -0.000000
v -0.006857 0.010962 -0.006857
v 0.000000 0.008558 -0.014166
v 0.010017 0.008558 -0.010017
v 0.014166 0.008558 -0.000000
v 0.010017 0.008558 0.010017
v -0.000000 0.008558 0.014166
v -0.010017 0.008558 0.010017
v -0.014166 0.008558 -0.000000
v -0.010017 0.008558 -0.010017
v 0.008657 0.005451 -0.008657
v 0.012242 0.005451 -0.000000
v 0.008657 0.005451 0.008657
v -0.000000 0.005451 0.012242
v -0.008657 0.005451 0.008657
v -0.012242 0.005451 -0.000000
v -0.008657 0.005451 -0.008657
v 0.000000 0.005451 -0.012242
v 0.010242 0.003282 -0.010313
v 0.014485 0.003282 -0.000071
v 0.010242 0.003282 0.010172
v -0.000000 0.003282 0.014414
v -0.010242 0.003282 0.010172
v -0.014485 0.003282 -0.000071
v -0.010242 0.003282 -0.010313
v -0.000000 0.003282 -0.014555
v 0.000000 0.012347 -0.010073
v 0.007122 0.012347 -0.007122
v 0.010072 0.012347 -0.000000
v 0.007122 0.012347 0.007122
v -0.000000 0.012347 0.010072
v -0.007122 0.012347 0.007122
v -0.010072 0.012347 -0.000000
v -0.007122 0.012347 -0.007122
v 0.005133 0.013675 -0.005133
v 0.000000 0.013675 -0.007259
v 0.007259 0.013675 -0.000000
v 0.005133 0.013675 0.005133
v -0.000000 0.013675 0.007259
v -0.005133 0.013675 0.005133
v -0.007259 0.013675 -0.000000
v -0.005133 0.013675 -0.005133
v 0.005133 0.013675 -0.005133
v 0.000000 0.013675 -0.007259
v 0.007259 0.013675 -0.000000
v 0.005133 0.013675 0.005133
v -0.000000 0.013675 0.007259
v -0.005133 0.013675 0.005133
v -0.007259 0.013675 -0.000000
v -0.005133 0.013675 -0.005133
v 0.003679 0.022317 -0.003679
v 0.000000 0.022317 -0.005203
v 0.005203 0.022317 -0.000000
v 0.003679 0.022317 0.003679
v -0.000000 0.022317 0.005203
v -0.003679 0.022317 0.003679
v -0.005203 0.022317 -0.000000
v -0.003679 0.022317 -0.003679
v 0.003679 0.028616 -0.003679
v -0.000000 0.028616 -0.005203
v 0.005203 0.028616 -0.000000
v 0.003679 0.028616 0.003679
v -0.000000 0.028616 0.005203
v -0.003679 0.028616 0.003679
v -0.005203 0.028616 -0.000000
v -0.003679 0.028616 -0.003679
v 0.003663 0.032278 -0.003663
v 0.000000 0.032278 -0.005180
v 0.005180 0.032278 -0.000000
v 0.003663 0.032278 0.003663
v -0.000000 0.032278 0.005180
v -0.003663 0.032278 0.003663
v -0.005180 0.032278 -0.000000
v -0.003663 0.032278 -0.003663
v -0.000000 0.030270 -0.008597
v 0.006079 0.030270 -0.006079
v -0.006079 0.030270 -0.006079
v -0.006079 0.030270 0.006079
v -0.008597 0.030270 -0.000000
v 0.006079 0.030270 0.006079
v -0.000000 0.030270 0.008597
v 0.008597 0.030270 -0.000000
v 0.000000 0.046642 -0.004000
v 0.000000 0.032786 -0.004000
v 0.002828 0.046642 -0.002828
v 0.004899 0.043714 -0.004899
v 0.005657 0.039714 -0.005657
v 0.004899 0.035714 -0.004899
v 0.002828 0.032786 -0.002828
v 0.004000 0.046642 -0.000000
v 0.006928 0.043714 -0.000000
v 0.008000 0.039714 -0.000000
v 0.006928 0.035714 -0.000000
v 0.004000 0.032786 -0.000000
v 0.002828 0.046642 0.002828
v 0.004899 0.043714 0.004899
v 0.005657 0.039714 0.005657
v 0.004899 0.035714 0.004899
v 0.002828 0.032786 0.002828
v 0.000000 0.046642 0.004000
v 0.000000 0.043714 0.006928
v 0.000000 0.039714 0.008000
v 0.000000 0.035714 0.006928
v 0.000000 0.032786 0.004000
v -0.002828 0.046642 0.002828
v -0.004899 0.043714 0.004899
v -0.005657 0.039714 0.005657
v -0.004899 0.035714 0.004899
v -0.002828 0.032786 0.002828
v -0.001343 0.033189 -0.001343
v -0.001899 0.033189 -0.000000
v -0.004000 0.046642 -0.000000
v -0.006928 0.043714 -0.000000
v -0.008000 0.039714 -0.000000
v -0.006928 0.035714 -0.000000
v -0.004000 0.032786 -0.000000
v -0.001343 0.033189 0.001343
v -0.000000 0.033189 0.001899
v -0.002828 0.046642 -0.002828
v -0.004899 0.043714 -0.004899
v -0.005657 0.039714 -0.005657
v -0.004899 0.035714 -0.004899
v -0.002828 0.032786 -0.002828
v 0.001343 0.033189 0.001343
v 0.000000 0.047714 0.000000
v 0.001899 0.033189 -0.000000
v 0.000000 0.043714 -0.006928
v -0.000000 0.039714 -0.008000
v 0.000000 0.035714 -0.006928
v -0.000000 0.033189 -0.001899
v 0.001343 0.033189 -0.001343
vt 0.875000 0.601819
vt 0.875000 0.672751
vt 0.750000 0.672751
vt 0.750000 0.601819
vt 0.625000 0.672751
vt 0.625000 0.601819
vt 0.500000 0.672751
vt 0.500000 0.601819
vt 0.375000 0.672751
vt 0.375000 0.601819
vt 0.250000 0.672751
vt 0.250000 0.601819
vt 0.125000 0.672751
vt 0.125000 0.601819
vt 0.009974 0.672751
vt 0.000000 0.601819
vt 0.375000 1.000000
vt 0.500000 1.000000
vt 0.500000 1.000000
vt 0.375000 1.000000
vt 0.750000 0.490000
vt 0.919706 0.419706
vt 0.990000 0.250000
vt 0.919706 0.080294
vt 0.750000 0.010000
vt 0.580294 0.080294
vt 0.510000 0.250000
vt 0.580295 0.419706
vt 1.000000 0.601819
vt 0.990026 0.672751
vt 0.000049 0.951444
vt 0.125000 0.951444
vt 0.125000 1.000000
vt 0.000000 1.000000
vt 0.250000 0.951444
vt 0.250000 1.000000
vt 0.375000 0.951444
vt 0.500000 0.951444
vt 0.625000 0.951444
vt 0.625000 1.000000
vt 0.750000 0.951444
vt 0.750000 1.000000
vt 0.875000 0.951444
vt 0.875000 1.000000
vt 0.999951 0.951444
vt 1.000000 1.000000
vt 0.125000 0.788359
vt 0.125000 0.900829
vt -0.000000 0.900829
vt 0.011602 0.788359
vt 0.250000 0.788359
vt 0.250000 0.900829
vt 0.375000 0.788359
vt 0.375000 0.900829
vt 0.500000 0.788359
vt 0.500000 0.900829
vt 0.625000 0.788359
vt 0.625000 0.900829
vt 0.750000 0.788359
vt 0.750000 0.900829
vt 0.875000 0.788359
vt 0.875000 0.900829
vt 0.988398 0.788359
vt 1.000000 0.900829
vt 0.000000 0.500000
vt 0.125000 0.500000
vt 0.250000 0.500000
vt 0.375000 0.500000
vt 0.500000 0.500000
vt 0.625000 0.500000
vt 0.750000 0.500000
vt 0.875000 0.500000
vt 1.000000 0.500000
vt 0.500000 1.000000
vt 0.375000 1.000000
vt 0.625000 1.000000
vt 0.750000 1.000000
vt 0.875000 1.000000
vt 1.000000 1.000000
vt 0.125000 1.000000
vt 0.000000 1.000000
vt 0.250000 1.000000
vt 0.125000 1.000000
vt 0.250000 1.000000
vt 0.250000 1.000000
vt 0.125000 1.000000
vt 0.750000 1.000000
vt 0.625000 1.000000
vt 1.000000 1.000000
vt 0.875000 1.000000
vt 0.000000 1.000000
vt 0.375000 1.000000
vt 0.375000 1.000000
vt 0.250000 1.000000
vt 0.500000 1.000000
vt 0.750000 1.000000
vt 0.625000 1.000000
vt 1.000000 1.000000
vt 0.875000 1.000000
vt 0.000000 1.000000
vt 0.875000 1.000000
vt 1.000000 1.000000
vt 1.000000 1.000000
vt 0.875000 1.000000
vt 0.625000 1.000000
vt 0.500000 1.000000
vt 0.875000 1.000000
vt 0.750000 1.000000
vt 0.125000 1.000000
vt 1.000000 1.000000
vt 0.000000 1.000000
vt 0.000000 1.000000
vt 0.125000 1.000000
vt 0.125000 1.000000
vt 0.000000 1.000000
vt -0.000000 1.000000
vt 0.125000 1.000000
vt 0.250000 1.000000
vt 0.375000 1.000000
vt 0.375000 1.000000
vt 0.250000 1.000000
vt 0.500000 1.000000
vt 0.625000 1.000000
vt 0.625000 1.000000
vt 0.500000 1.000000
vt 0.750000 1.000000
vt 0.750000 1.000000
vt 0.750000 0.166667
vt 0.750000 0.333333
vt 0.625000 0.333333
vt 0.625000 0.166667
vt 0.750000 0.500000
vt 0.750000 0.666667
vt 0.625000 0.666667
vt 0.625000 0.500000
vt 0.750000 0.833333
vt 0.687500 1.000000
vt 0.625000 0.833333
vt 0.625000 1.000000
vt 0.750000 1.000000
vt 0.500000 0.166667
vt 0.375000 0.166667
vt 0.500000 0.333333
vt 0.500000 0.666667
vt 0.500000 0.500000
vt 0.562500 1.000000
vt 0.500000 0.833333
vt 0.875000 1.000000
vt 1.000000 1.000000
vt 0.375000 0.666667
vt 0.375000 0.500000
vt 0.437500 1.000000
vt 0.375000 0.833333
vt 0.375000 0.333333
vt 0.312500 1.000000
vt 0.250000 0.833333
vt 0.500000 1.000000
vt 0.250000 0.166667
vt 0.250000 0.500000
vt 0.250000 0.333333
vt 0.250000 0.666667
vt 0.375000 1.000000
vt 0.125000 0.166667
vt 0.125000 0.500000
vt 0.125000 0.333333
vt 0.125000 0.833333
vt 0.125000 0.666667
vt 0.187500 1.000000
vt 0.250000 1.000000
vt 0.000000 0.166667
vt 0.000000 0.500000
vt 0.000000 0.333333
vt 0.000000 0.833333
vt 0.000000 0.666667
vt 0.062500 1.000000
vt 1.000000 0.166667
vt 0.875000 0.166667
vt 1.000000 0.333333
vt 1.000000 0.500000
vt 0.875000 0.500000
vt 0.875000 0.333333
vt 1.000000 0.666667
vt 1.000000 0.833333
vt 0.875000 0.833333
vt 0.875000 0.666667
vt 0.937500 1.000000
vt 0.812500 1.000000
vn 0.6639 0.6954 -0.2750
vn 0.6722 0.6860 0.2784
vn 0.2809 0.6791 0.6782
vn -0.2809 0.6791 0.6782
vn -0.6722 0.6860 0.2784
vn -0.6639 0.6954 -0.2750
vn -0.2726 0.7019 -0.6581
vn 0.0000 0.0000 1.0000
vn 0.0000 -1.0000 0.0000
vn 0.2726 0.7019 -0.6581
vn -0.1741 0.8905 -0.4203
vn -0.4203 0.8905 -0.1741
vn -0.4203 0.8905 0.1741
vn -0.1741 0.8905 0.4203
vn 0.1741 0.8905 0.4203
vn 0.4203 0.8905 0.1741
vn 0.4203 0.8905 -0.1741
vn 0.1741 0.8905 -0.4203
vn -0.1926 0.8641 -0.4650
vn -0.4650 0.8641 -0.1926
vn -0.4650 0.8641 0.1926
vn -0.1926 0.8641 0.4650
vn 0.1926 0.8641 0.4650
vn 0.4650 0.8641 0.1926
vn 0.4650 0.8641 -0.1926
vn 0.1926 0.8641 -0.4650
vn 0.3322 -0.4965 -0.8020
vn 0.8020 -0.4965 -0.3322
vn 0.8020 -0.4965 0.3322
vn 0.3322 -0.4965 0.8020
vn -0.3322 -0.4965 0.8020
vn -0.8020 -0.4965 0.3322
vn -0.8020 -0.4965 -0.3322
vn -0.3322 -0.4965 -0.8020
vn -0.3797 0.1242 -0.9167
vn -0.9154 0.1355 -0.3792
vn -0.9132 0.1515 0.3783
vn -0.3776 0.1627 0.9116
vn 0.3776 0.1627 0.9116
vn 0.9132 0.1515 0.3783
vn 0.9154 0.1355 -0.3792
vn 0.3797 0.1242 -0.9167
vn 0.3712 -0.2432 -0.8961
vn 0.8961 -0.2432 -0.3712
vn 0.8961 -0.2432 0.3712
vn 0.3712 -0.2432 0.8961
vn -0.3712 -0.2432 0.8961
vn -0.8961 -0.2432 0.3712
vn -0.8961 -0.2432 -0.3712
vn -0.3712 -0.2432 -0.8961
vn -0.9024 0.2146 -0.3738
vn -0.9239 -0.0000 0.3827
vn -0.3738 0.2146 0.9024
vn 0.9024 0.2146 0.3738
vn 0.3738 0.2146 -0.9024
vn -0.3738 0.2146 -0.9024
vn -0.9024 0.2146 0.3738
vn 0.3738 0.2146 0.9024
vn 0.9024 0.2146 -0.3738
vn 0.2054 0.8437 -0.4959
vn 0.3827 0.0000 0.9239
vn 0.9239 0.0000 -0.3827
vn -0.9239 -0.0000 -0.3827
vn -0.3827 -0.0000 0.9239
vn 0.9239 0.0000 0.3827
vn 0.3827 0.0000 -0.9239
vn -0.3827 -0.0000 -0.9239
vn -0.1101 0.9577 -0.2659
vn -0.2054 0.8437 -0.4959
vn -0.4959 0.8437 0.2054
vn 0.2054 0.8437 0.4959
vn 0.4959 0.8437 -0.2054
vn -0.4959 0.8437 -0.2054
vn -0.2054 0.8437 0.4959
vn 0.4959 0.8437 0.2054
vn 0.4310 -0.8845 0.1785
vn -0.1785 -0.8845 0.4310
vn -0.4310 -0.8845 -0.1785
vn 0.4310 -0.8845 -0.1785
vn 0.1785 -0.8845 0.4310
vn -0.4310 -0.8845 0.1785
vn -0.1785 -0.8845 -0.4310
vn 0.1785 -0.8845 -0.4310
vn 0.2811 -0.6786 -0.6786
vn 0.3715 0.2403 -0.8968
vn 0.1066 0.9604 -0.2573
vn -0.1878 -0.9791 -0.0778
vn 0.3715 -0.2403 -0.8968
vn 0.2811 0.6786 -0.6786
vn 0.6786 -0.6786 -0.2811
vn 0.8968 0.2403 -0.3715
vn 0.2573 0.9604 -0.1066
vn -0.0778 -0.9791 0.1878
vn 0.8968 -0.2403 -0.3715
vn 0.6786 0.6786 -0.2811
vn 0.8968 0.2403 0.3715
vn 0.2573 0.9604 0.1066
vn 0.8968 -0.2403 0.3715
vn 0.6786 0.6786 0.2811
vn 0.6786 -0.6786 0.2811
vn 0.1066 0.9604 0.2573
vn -0.0778 -0.9791 -0.1878
vn 0.3715 -0.2403 0.8968
vn 0.2811 0.6786 0.6786
vn 0.2811 -0.6786 0.6786
vn 0.3715 0.2403 0.8968
vn 0.0778 -0.9791 -0.1878
vn -0.3715 -0.2403 0.8968
vn -0.2811 0.6786 0.6786
vn -0.2811 -0.6786 0.6786
vn -0.3715 0.2403 0.8968
vn -0.1066 0.9604 0.2573
vn 0.1878 -0.9791 -0.0778
vn -0.8968 -0.2403 0.3715
vn -0.6786 0.6786 0.2811
vn -0.6786 -0.6786 0.2811
vn -0.8968 0.2403 0.3715
vn -0.2573 0.9604 0.1066
vn 0.1878 -0.9791 0.0778
vn -0.8968 -0.2403 -0.3715
vn -0.6786 0.6786 -0.2811
vn -0.6786 -0.6786 -0.2811
vn -0.8968 0.2403 -0.3715
vn -0.2573 0.9604 -0.1066
vn -0.3715 -0.2403 -0.8968
vn -0.2811 0.6786 -0.6786
vn -0.2811 -0.6786 -0.6786
vn -0.3715 0.2403 -0.8968
vn -0.1066 0.9604 -0.2573
vn -0.1878 -0.9791 0.0778
vn 0.0778 -0.9791 0.1878
vn -0.2659 0.9577 0.1101
vn 0.1101 0.9577 0.2659
vn 0.2659 0.9577 -0.1101
vn -0.2659 0.9577 -0.1101
vn -0.1101 0.9577 0.2659
vn 0.2659 0.9577 0.1101
vn 0.1101 0.9577 -0.2659
usemtl None
s off
f 41/1/1 33/2/1 34/3/1 42/4/1
f 42/4/2 34/3/2 35/5/2 43/6/2
f 43/6/3 35/5/3 36/7/3 44/8/3
f 44/8/4 36/7/4 37/9/4 45/10/4
f 45/10/5 37/9/5 38/11/5 46/12/5
f 46/12/6 38/11/6 39/13/6 47/14/6
f 47/14/7 39/13/7 40/15/7 48/16/7
f 12/17/8 10/18/8 61/19/8 62/20/8
f 1/21/9 3/22/9 5/23/9 7/24/9 9/25/9 11/26/9 13/27/9 15/28/9
f 48/29/10 40/30/10 33/2/10 41/1/10
f 49/31/11 56/32/11 16/33/11 2/34/11
f 56/32/12 55/35/12 14/36/12 16/33/12
f 55/35/13 54/37/13 12/17/13 14/36/13
f 54/37/14 53/38/14 10/18/14 12/17/14
f 53/38/15 52/39/15 8/40/15 10/18/15
f 52/39/16 51/41/16 6/42/16 8/40/16
f 51/41/17 50/43/17 4/44/17 6/42/17
f 50/43/18 49/45/18 2/46/18 4/44/18
f 32/47/19 24/48/19 17/49/19 25/50/19
f 31/51/20 23/52/20 24/48/20 32/47/20
f 30/53/21 22/54/21 23/52/21 31/51/21
f 29/55/22 21/56/22 22/54/22 30/53/22
f 28/57/23 20/58/23 21/56/23 29/55/23
f 27/59/24 19/60/24 20/58/24 28/57/24
f 26/61/25 18/62/25 19/60/25 27/59/25
f 25/63/26 17/64/26 18/62/26 26/61/26
f 26/61/27 33/2/27 40/30/27 25/63/27
f 27/59/28 34/3/28 33/2/28 26/61/28
f 28/57/29 35/5/29 34/3/29 27/59/29
f 29/55/30 36/7/30 35/5/30 28/57/30
f 30/53/31 37/9/31 36/7/31 29/55/31
f 31/51/32 38/11/32 37/9/32 30/53/32
f 32/47/33 39/13/33 38/11/33 31/51/33
f 25/50/34 40/15/34 39/13/34 32/47/34
f 48/16/35 1/65/35 15/66/35 47/14/35
f 47/14/36 15/66/36 13/67/36 46/12/36
f 46/12/37 13/67/37 11/68/37 45/10/37
f 45/10/38 11/68/38 9/69/38 44/8/38
f 44/8/39 9/69/39 7/70/39 43/6/39
f 43/6/40 7/70/40 5/71/40 42/4/40
f 3/72/41 41/1/41 42/4/41 5/71/41
f 1/73/42 48/29/42 41/1/42 3/72/42
f 18/62/43 17/64/43 49/45/43 50/43/43
f 19/60/44 18/62/44 50/43/44 51/41/44
f 20/58/45 19/60/45 51/41/45 52/39/45
f 21/56/46 20/58/46 52/39/46 53/38/46
f 22/54/47 21/56/47 53/38/47 54/37/47
f 23/52/48 22/54/48 54/37/48 55/35/48
f 24/48/49 23/52/49 55/35/49 56/32/49
f 17/49/50 24/48/50 56/32/50 49/31/50
f 62/20/8 61/19/8 69/74/8 70/75/8
f 10/18/8 8/40/8 60/76/8 61/19/8
f 8/40/8 6/42/8 59/77/8 60/76/8
f 6/42/8 4/44/8 57/78/8 59/77/8
f 4/44/8 2/46/8 58/79/8 57/78/8
f 2/34/8 16/33/8 64/80/8 58/81/8
f 16/33/8 14/36/8 63/82/8 64/80/8
f 14/36/8 12/17/8 62/20/8 63/82/8
f 72/83/51 71/84/51 79/85/51 80/86/51
f 60/76/8 59/77/8 67/87/8 68/88/8
f 57/78/8 58/79/8 66/89/8 65/90/8
f 58/81/8 64/80/8 72/83/8 66/91/8
f 63/82/8 62/20/8 70/75/8 71/84/8
f 61/19/8 60/76/8 68/88/8 69/74/8
f 59/77/8 57/78/8 65/90/8 67/87/8
f 64/80/8 63/82/8 71/84/8 72/83/8
f 79/85/52 78/92/52 86/93/52 87/94/52
f 70/75/53 69/74/53 77/95/53 78/92/53
f 68/88/54 67/87/54 75/96/54 76/97/54
f 65/90/55 66/89/55 74/98/55 73/99/55
f 66/91/56 72/83/56 80/86/56 74/100/56
f 71/84/57 70/75/57 78/92/57 79/85/57
f 69/74/58 68/88/58 76/97/58 77/95/58
f 67/87/59 65/90/59 73/99/59 75/96/59
f 98/101/60 97/102/60 90/103/60 89/104/60
f 77/95/61 76/97/61 84/105/61 85/106/61
f 75/96/62 73/99/62 81/107/62 83/108/62
f 80/86/63 79/85/63 87/94/63 88/109/63
f 78/92/64 77/95/64 85/106/64 86/93/64
f 76/97/65 75/96/65 83/108/65 84/105/65
f 73/99/66 74/98/66 82/110/66 81/107/66
f 74/100/67 80/86/67 88/109/67 82/111/67
f 90/112/68 96/113/68 132/114/68 152/115/68
f 97/116/69 99/117/69 96/113/69 90/112/69
f 101/118/70 100/119/70 94/120/70 95/121/70
f 103/122/71 102/123/71 92/124/71 93/125/71
f 104/126/72 98/101/72 89/104/72 91/127/72
f 99/117/73 101/118/73 95/121/73 96/113/73
f 100/119/74 103/122/74 93/125/74 94/120/74
f 102/123/75 104/126/75 91/127/75 92/124/75
f 84/105/76 83/108/76 104/126/76 102/123/76
f 86/93/77 85/106/77 103/122/77 100/119/77
f 88/109/78 87/94/78 101/118/78 99/117/78
f 83/108/79 81/107/79 98/101/79 104/126/79
f 85/106/80 84/105/80 102/123/80 103/122/80
f 87/94/81 86/93/81 100/119/81 101/118/81
f 82/111/82 88/109/82 99/117/82 97/116/82
f 81/107/83 82/110/83 97/102/83 98/101/83
f 106/128/84 151/129/84 110/130/84 111/131/84
f 150/132/85 149/133/85 108/134/85 109/135/85
f 105/136/86 147/137/86 107/138/86
f 146/139/87 148/140/87 116/141/87 121/142/87
f 151/129/88 150/132/88 109/135/88 110/130/88
f 149/133/89 105/136/89 107/138/89 108/134/89
f 111/131/90 110/130/90 115/143/90 116/141/90
f 109/135/91 108/134/91 113/144/91 114/145/91
f 107/138/92 147/146/92 112/147/92
f 153/148/93 152/149/93 106/128/93 111/131/93
f 110/130/94 109/135/94 114/145/94 115/143/94
f 108/134/95 107/138/95 112/147/95 113/144/95
f 114/145/96 113/144/96 118/150/96 119/151/96
f 112/147/97 147/152/97 117/153/97
f 115/143/98 114/145/98 119/151/98 120/154/98
f 113/144/99 112/147/99 117/153/99 118/150/99
f 116/141/100 115/143/100 120/154/100 121/142/100
f 117/153/101 147/155/101 122/156/101
f 140/157/102 146/139/102 121/142/102 126/158/102
f 120/154/103 119/151/103 124/159/103 125/160/103
f 118/150/104 117/153/104 122/156/104 123/161/104
f 121/142/105 120/154/105 125/160/105 126/158/105
f 119/151/106 118/150/106 123/161/106 124/159/106
f 139/162/107 140/157/107 126/158/107 131/163/107
f 125/160/108 124/159/108 129/164/108 130/165/108
f 123/161/109 122/156/109 127/166/109 128/167/109
f 126/158/110 125/160/110 130/165/110 131/163/110
f 124/159/111 123/161/111 128/167/111 129/164/111
f 122/156/112 147/168/112 127/166/112
f 133/169/113 139/162/113 131/163/113 138/170/113
f 130/165/114 129/164/114 136/171/114 137/172/114
f 128/167/115 127/166/115 134/173/115 135/174/115
f 131/163/116 130/165/116 137/172/116 138/170/116
f 129/164/117 128/167/117 135/174/117 136/171/117
f 127/166/118 147/175/118 134/173/118
f 132/114/119 133/169/119 138/176/119 145/177/119
f 137/178/120 136/179/120 143/180/120 144/181/120
f 135/182/121 134/183/121 141/184/121 142/185/121
f 138/176/122 137/178/122 144/181/122 145/177/122
f 136/179/123 135/182/123 142/185/123 143/180/123
f 134/183/124 147/186/124 141/184/124
f 144/181/125 143/180/125 150/132/125 151/129/125
f 142/185/126 141/184/126 105/136/126 149/133/126
f 145/177/127 144/181/127 151/129/127 106/128/127
f 143/180/128 142/185/128 149/133/128 150/132/128
f 141/184/129 147/187/129 105/136/129
f 148/140/130 153/148/130 111/131/130 116/141/130
f 152/115/131 132/114/131 145/177/131 106/128/131
f 95/121/132 94/120/132 139/162/132 133/169/132
f 93/125/133 92/124/133 146/139/133 140/157/133
f 91/127/134 89/104/134 153/148/134 148/140/134
f 96/113/135 95/121/135 133/169/135 132/114/135
f 94/120/136 93/125/136 140/157/136 139/162/136
f 92/124/137 91/127/137 148/140/137 146/139/137
f 89/104/138 90/103/138 152/149/138 153/148/138
