# Blender v2.82 (sub 7) OBJ File: 'Bishop.blend'
# www.blender.org
mtllib Bishop.mtl
o Bishop_Cylinder
v -0.000000 -0.000000 -0.020000
v 0.000000 0.018113 -0.009679
v 0.014142 -0.000000 -0.014142
v 0.006844 0.018113 -0.006844
v 0.020000 -0.000000 0.000000
v 0.009679 0.018113 -0.000000
v 0.014142 -0.000000 0.014142
v 0.006844 0.018113 0.006844
v -0.000000 -0.000000 0.020000
v -0.000000 0.018113 0.009679
v -0.014142 -0.000000 0.014142
v -0.006844 0.018113 0.006844
v -0.020000 -0.000000 -0.000000
v -0.009679 0.018113 -0.000000
v -0.014142 -0.000000 -0.014142
v -0.006844 0.018113 -0.006844
v 0.000000 0.014520 -0.012929
v 0.009142 0.014520 -0.009142
v 0.012929 0.014520 -0.000000
v 0.009142 0.014520 0.009142
v -0.000000 0.014520 0.012929
v -0.009142 0.014520 0.009142
v -0.012929 0.014520 -0.000000
v -0.009142 0.014520 -0.009142
v -0.000000 0.011335 -0.018888
v 0.013355 0.011335 -0.013355
v 0.018888 0.011335 -0.000000
v 0.013355 0.011335 0.013355
v -0.000000 0.011335 0.018888
v -0.013356 0.011335 0.013355
v -0.018888 0.011335 -0.000000
v -0.013355 0.011335 -0.013356
v 0.011542 0.007220 -0.011542
v 0.016323 0.007220 -0.000000
v 0.011542 0.007220 0.011542
v -0.000000 0.007220 0.016323
v -0.011542 0.007220 0.011542
v -0.016323 0.007220 -0.000000
v -0.011542 0.007220 -0.011542
v -0.000000 0.007220 -0.016323
v 0.013656 0.004348 -0.013751
v 0.019313 0.004348 -0.000094
v 0.013656 0.004348 0.013562
v -0.000000 0.004348 0.019219
v -0.013656 0.004348 0.013562
v -0.019313 0.004348 -0.000094
v -0.013656 0.004348 -0.013751
v -0.000000 0.004348 -0.019407
v 0.000000 0.016354 -0.013430
v 0.009496 0.016354 -0.009496
v 0.013430 0.016354 -0.000000
v 0.009496 0.016354 0.009496
v -0.000000 0.016354 0.013430
v -0.009496 0.016354 0.009496
v -0.013430 0.016354 -0.000000
v -0.009496 0.016354 -0.009496
v 0.006844 0.018113 -0.006844
v 0.000000 0.018113 -0.009679
v 0.009679 0.018113 -0.000000
v 0.006844 0.018113 0.006844
v -0.000000 0.018113 0.009679
v -0.006844 0.018113 0.006844
v -0.009679 0.018113 -0.000000
v -0.006844 0.018113 -0.006844
v 0.006844 0.018113 -0.006844
v 0.000000 0.018113 -0.009679
v 0.009679 0.018113 -0.000000
v 0.006844 0.018113 0.006844
v -0.000000 0.018113 0.009679
v -0.006844 0.018113 0.006844
v -0.009679 0.018113 -0.000000
v -0.006844 0.018113 -0.006844
v 0.004906 0.029560 -0.004906
v -0.000000 0.029560 -0.006938
v 0.006938 0.029560 -0.000000
v 0.004906 0.029560 0.004906
v -0.000000 0.029560 0.006938
v -0.004906 0.029560 0.004906
v -0.006938 0.029560 -0.000000
v -0.004906 0.029560 -0.004906
v 0.004906 0.039968 -0.004906
v -0.000000 0.039968 -0.006938
v 0.006938 0.039968 -0.000000
v 0.004906 0.039968 0.004906
v -0.000000 0.039968 0.006938
v -0.004906 0.039968 0.004906
v -0.006938 0.039968 -0.000000
v -0.004906 0.039968 -0.004906
v 0.006148 0.044454 -0.006148
v -0.000000 0.044454 -0.008694
v 0.008694 0.044454 -0.000000
v 0.006148 0.044454 0.006148
v -0.000000 0.044454 0.008694
v -0.006148 0.044454 0.006148
v -0.008694 0.044454 -0.000000
v -0.006148 0.044454 -0.006148
v -0.000000 0.042159 -0.011463
v 0.008106 0.042159 -0.008106
v -0.008106 0.042159 -0.008106
v -0.008106 0.042159 0.008106
v -0.011463 0.042159 -0.000000
v 0.008106 0.042159 0.008106
v -0.000000 0.042159 0.011463
v 0.011463 0.042159 -0.000000
v -0.000000 0.073142 -0.001742
v -0.000000 0.048935 -0.007346
v 0.001349 0.073142 -0.001232
v 0.005915 0.067034 -0.005401
v 0.007542 0.060409 -0.006887
v 0.007046 0.053785 -0.006434
v 0.003771 0.048935 -0.005195
v 0.001907 0.073142 -0.000000
v 0.008365 0.067034 -0.000000
v 0.010667 0.060409 -0.000000
v 0.009965 0.053785 -0.000000
v 0.005333 0.048935 -0.000000
v 0.001349 0.073142 0.001232
v 0.007542 0.060409 0.006887
v 0.007046 0.053785 0.006434
v 0.003771 0.048935 0.005195
v -0.000000 0.073142 0.001742
v -0.000000 0.067034 0.007638
v 0.000000 0.060409 0.009740
v -0.000000 0.053785 0.009099
v -0.000000 0.048935 0.007346
v -0.001349 0.073142 0.001232
v -0.007542 0.060409 0.006887
v -0.007046 0.053785 0.006434
v -0.003771 0.048935 0.005195
v 0.005473 0.046695 0.006258
v -0.007739 0.046695 -0.000000
v -0.001907 0.073142 -0.000000
v -0.008365 0.067034 -0.000000
v -0.010667 0.060409 0.000000
v -0.009965 0.053785 -0.000000
v -0.005333 0.048935 0.000000
v -0.000000 0.046695 0.008850
v -0.005472 0.046695 -0.006258
v -0.001349 0.073142 -0.001232
v -0.005915 0.067034 -0.005401
v -0.007542 0.060409 -0.006887
v -0.007046 0.053785 -0.006434
v -0.003771 0.048935 -0.005195
v -0.005473 0.046695 0.006258
v 0.005473 0.046695 -0.006258
v -0.000000 0.067034 -0.007638
v -0.000000 0.060409 -0.009740
v -0.000000 0.053785 -0.009099
v -0.000000 0.046695 -0.008850
v 0.007739 0.046695 -0.000000
v 0.000000 0.075716 -0.003104
v 0.001526 0.077874 -0.001577
v 0.002159 0.075716 -0.002209
v 0.001229 0.073557 -0.001279
v 0.002159 0.077874 -0.000051
v 0.003053 0.075716 -0.000051
v 0.001738 0.073557 -0.000051
v 0.001526 0.077874 0.001476
v 0.002159 0.075716 0.002108
v 0.001229 0.073557 0.001178
v 0.000000 0.077874 0.002108
v 0.000000 0.075716 0.003002
v 0.000000 0.073557 0.001687
v -0.000000 0.078769 -0.000051
v -0.001526 0.077874 0.001476
v -0.002159 0.075716 0.002108
v -0.001229 0.073557 0.001178
v -0.002159 0.077874 -0.000051
v -0.003053 0.075716 -0.000051
v -0.001738 0.073557 -0.000051
v -0.001526 0.077874 -0.001577
v -0.002159 0.075716 -0.002209
v -0.001229 0.073557 -0.001279
v 0.000000 0.077874 -0.002209
v 0.000000 0.073557 -0.001788
v -0.008476 0.056731 -0.000411
v -0.008647 0.055646 0.003340
v 0.008299 0.055439 0.004058
v 0.007225 0.067034 0.002515
v 0.010114 0.060409 0.001217
v 0.010083 0.056504 0.000375
v -0.010104 0.056516 0.000331
v -0.000000 0.071648 0.003184
v -0.003125 0.070766 0.002854
v -0.007526 0.067034 0.001852
v 0.003368 0.070441 0.003076
v -0.008476 0.064941 0.001358
v -0.000000 0.068267 0.006448
v 0.003441 0.067034 0.006337
v 0.006515 0.064591 0.005949
v 0.008339 0.060409 0.005130
v -0.004369 0.067034 0.005986
v -0.006196 0.065891 0.005658
v -0.008687 0.060409 0.004365
v -0.010130 0.060409 0.001183
vt 0.875000 0.601819
vt 0.875000 0.672751
vt 0.750000 0.672751
vt 0.750000 0.601819
vt 0.625000 0.672751
vt 0.625000 0.601819
vt 0.500000 0.672751
vt 0.500000 0.601819
vt 0.375000 0.672751
vt 0.375000 0.601819
vt 0.250000 0.672751
vt 0.250000 0.601819
vt 0.125000 0.672751
vt 0.125000 0.601819
vt 0.009974 0.672751
vt 0.000000 0.601819
vt 0.375000 1.000000
vt 0.500000 1.000000
vt 0.500000 1.000000
vt 0.375000 1.000000
vt 0.750000 0.490000
vt 0.919706 0.419706
vt 0.990000 0.250000
vt 0.919706 0.080294
vt 0.750000 0.010000
vt 0.580294 0.080294
vt 0.510000 0.250000
vt 0.580295 0.419706
vt 1.000000 0.601819
vt 0.990026 0.672751
vt 0.000049 0.951444
vt 0.125000 0.951444
vt 0.125000 1.000000
vt 0.000000 1.000000
vt 0.250000 0.951444
vt 0.250000 1.000000
vt 0.375000 0.951444
vt 0.500000 0.951444
vt 0.625000 0.951444
vt 0.625000 1.000000
vt 0.750000 0.951444
vt 0.750000 1.000000
vt 0.875000 0.951444
vt 0.875000 1.000000
vt 0.999951 0.951444
vt 1.000000 1.000000
vt 0.125000 0.788359
vt 0.125000 0.900829
vt -0.000000 0.900829
vt 0.011602 0.788359
vt 0.250000 0.788359
vt 0.250000 0.900829
vt 0.375000 0.788359
vt 0.375000 0.900829
vt 0.500000 0.788359
vt 0.500000 0.900829
vt 0.625000 0.788359
vt 0.625000 0.900829
vt 0.750000 0.788359
vt 0.750000 0.900829
vt 0.875000 0.788359
vt 0.875000 0.900829
vt 0.988398 0.788359
vt 1.000000 0.900829
vt 0.000000 0.500000
vt 0.125000 0.500000
vt 0.250000 0.500000
vt 0.375000 0.500000
vt 0.500000 0.500000
vt 0.625000 0.500000
vt 0.750000 0.500000
vt 0.875000 0.500000
vt 1.000000 0.500000
vt 0.500000 1.000000
vt 0.375000 1.000000
vt 0.625000 1.000000
vt 0.750000 1.000000
vt 0.875000 1.000000
vt 1.000000 1.000000
vt 0.125000 1.000000
vt 0.000000 1.000000
vt 0.250000 1.000000
vt 0.125000 1.000000
vt 0.250000 1.000000
vt 0.250000 1.000000
vt 0.125000 1.000000
vt 0.750000 1.000000
vt 0.625000 1.000000
vt 1.000000 1.000000
vt 0.875000 1.000000
vt 0.000000 1.000000
vt 0.375000 1.000000
vt 0.375000 1.000000
vt 0.250000 1.000000
vt 0.500000 1.000000
vt 0.750000 1.000000
vt 0.625000 1.000000
vt 1.000000 1.000000
vt 0.875000 1.000000
vt 0.000000 1.000000
vt 0.875000 1.000000
vt 1.000000 1.000000
vt 1.000000 1.000000
vt 0.875000 1.000000
vt 0.625000 1.000000
vt 0.500000 1.000000
vt 0.875000 1.000000
vt 0.750000 1.000000
vt 0.125000 1.000000
vt 1.000000 1.000000
vt 0.000000 1.000000
vt 0.625000 0.166667
vt 0.500000 0.166667
vt 0.625000 0.583333
vt 0.750000 0.583333
vt -0.000000 1.000000
vt 0.125000 1.000000
vt 0.125000 1.000000
vt 0.000000 1.000000
vt 0.250000 1.000000
vt 0.375000 1.000000
vt 0.375000 1.000000
vt 0.250000 1.000000
vt 0.500000 1.000000
vt 0.625000 1.000000
vt 0.625000 1.000000
vt 0.500000 1.000000
vt 0.750000 1.000000
vt 0.750000 1.000000
vt 0.750000 0.166667
vt 0.750000 0.333333
vt 0.625000 0.333333
vt 0.750000 0.500000
vt 0.750000 0.666667
vt 0.625000 0.666667
vt 0.625000 0.500000
vt 0.250000 0.583333
vt 0.125000 0.583333
vt 0.750000 0.833333
vt 0.625000 0.833333
vt 0.500000 0.333333
vt 0.500000 0.666667
vt 0.500000 0.500000
vt 0.500000 0.833333
vt 0.441800 0.666667
vt 0.477903 0.500000
vt 0.492951 0.401745
vt 0.422484 0.374951
vt 0.406886 0.500000
vt 0.375000 0.500000
vt 0.375000 0.333333
vt 0.375000 0.833333
vt 0.375000 0.759628
vt 0.375000 0.166667
vt 0.500000 0.583333
vt 0.375000 0.583333
vt 0.250000 0.500000
vt 0.250000 0.333333
vt 0.250000 0.166667
vt 0.375000 0.605206
vt 0.322706 0.666667
vt 0.250000 0.666667
vt 0.500000 0.583333
vt 0.125000 0.500000
vt 0.125000 0.333333
vt 0.250000 0.700310
vt 0.157672 0.666667
vt 0.125000 0.166667
vt 0.125000 0.637910
vt 0.375000 0.583333
vt 0.079217 0.500000
vt 0.063633 0.380170
vt 0.006232 0.402060
vt 0.021466 0.500000
vt 0.000000 0.500000
vt 0.000000 0.333333
vt 0.000000 0.166667
vt 1.000000 0.333333
vt 1.000000 0.500000
vt 0.875000 0.500000
vt 0.875000 0.333333
vt 1.000000 0.666667
vt 1.000000 0.833333
vt 0.875000 0.833333
vt 0.875000 0.666667
vt 1.000000 0.166667
vt 0.875000 0.166667
vt 0.875000 0.583333
vt 0.625000 0.583333
vt 0.750000 0.250000
vt 0.750000 0.500000
vt 0.625000 0.500000
vt 0.625000 0.250000
vt 0.750000 0.750000
vt 0.687500 1.000000
vt 0.625000 0.750000
vt 0.500000 0.500000
vt 0.500000 0.250000
vt 0.562500 1.000000
vt 0.500000 0.750000
vt 0.375000 0.500000
vt 0.375000 0.250000
vt 0.437500 1.000000
vt 0.375000 0.750000
vt 0.250000 0.500000
vt 0.250000 0.250000
vt 0.312500 1.000000
vt 0.250000 0.750000
vt 0.125000 0.500000
vt 0.125000 0.250000
vt 0.187500 1.000000
vt 0.125000 0.750000
vt 0.000000 0.750000
vt 0.000000 0.500000
vt 0.000000 0.250000
vt 0.062500 1.000000
vt 1.000000 0.500000
vt 1.000000 0.750000
vt 0.875000 0.750000
vt 0.875000 0.500000
vt 1.000000 0.250000
vt 0.875000 0.250000
vt 0.937500 1.000000
vt 0.812500 1.000000
vt 0.250000 0.833333
vt 0.125000 0.833333
vt 0.000000 0.833333
vt 0.375000 0.500000
vt 0.375000 0.687445
vt 0.418534 0.687762
vt 0.491978 0.658577
vt 0.529430 0.619627
vt 0.542426 0.585609
vt 0.532169 0.554045
vt 0.489966 0.509602
vt 0.466514 0.500000
vt 0.042850 0.666667
vt 0.125000 0.768500
vt 0.000000 0.666667
vt 0.250000 0.792564
vt 0.375000 0.004399
vt 0.375000 0.175554
vt 0.428083 0.175957
vt 0.489521 0.150801
vt 0.502510 0.132350
vt 0.516851 0.088223
vt 0.503576 0.053473
vt 0.476766 0.022419
vt 0.430406 0.003996
vt 0.125000 0.574446
vt 0.125000 0.745601
vt 0.321043 0.500000
vt 0.375000 0.446043
vt 0.418429 0.445175
vt 0.028526 0.614024
vn 0.6618 0.6978 -0.2741
vn 0.6701 0.6884 0.2776
vn 0.2800 0.6815 0.6761
vn -0.2800 0.6815 0.6761
vn -0.6701 0.6884 0.2776
vn -0.6618 0.6978 -0.2741
vn -0.2717 0.7042 -0.6559
vn 0.0000 0.0000 1.0000
vn 0.0000 -1.0000 0.0000
vn 0.2717 0.7042 -0.6559
vn -0.1732 0.8917 -0.4181
vn -0.4181 0.8917 -0.1732
vn -0.4181 0.8917 0.1732
vn -0.1732 0.8917 0.4181
vn 0.1732 0.8917 0.4181
vn 0.4181 0.8917 0.1732
vn 0.4181 0.8917 -0.1732
vn 0.1732 0.8917 -0.4181
vn -0.1917 0.8656 -0.4627
vn -0.4627 0.8656 -0.1917
vn -0.4627 0.8656 0.1917
vn -0.1917 0.8656 0.4627
vn 0.1917 0.8656 0.4627
vn 0.4627 0.8656 0.1917
vn 0.4627 0.8656 -0.1917
vn 0.1917 0.8656 -0.4627
vn 0.3317 -0.4989 -0.8007
vn 0.8007 -0.4989 -0.3317
vn 0.8007 -0.4989 0.3317
vn 0.3317 -0.4989 0.8007
vn -0.3317 -0.4989 0.8007
vn -0.8007 -0.4989 0.3316
vn -0.8007 -0.4989 -0.3317
vn -0.3316 -0.4989 -0.8007
vn -0.3797 0.1250 -0.9166
vn -0.9152 0.1364 -0.3791
vn -0.9131 0.1525 0.3782
vn -0.3775 0.1638 0.9114
vn 0.3775 0.1638 0.9114
vn 0.9131 0.1525 0.3782
vn 0.9152 0.1364 -0.3791
vn 0.3797 0.1250 -0.9166
vn 0.3710 -0.2447 -0.8958
vn 0.8958 -0.2447 -0.3710
vn 0.8958 -0.2447 0.3710
vn 0.3710 -0.2447 0.8958
vn -0.3710 -0.2447 0.8958
vn -0.8958 -0.2447 0.3710
vn -0.8958 -0.2447 -0.3710
vn -0.3710 -0.2447 -0.8958
vn -0.9021 0.2160 -0.3737
vn -0.9239 -0.0000 0.3827
vn -0.3737 0.2160 0.9021
vn 0.9021 0.2160 0.3737
vn 0.3737 0.2160 -0.9021
vn -0.3737 0.2160 -0.9021
vn -0.9021 0.2160 0.3737
vn 0.3737 0.2160 0.9021
vn 0.9021 0.2160 -0.3737
vn 0.2556 0.7442 -0.6171
vn 0.3827 0.0000 0.9239
vn 0.9239 0.0000 -0.3827
vn -0.9239 -0.0000 -0.3827
vn -0.3827 -0.0000 0.9239
vn 0.9239 0.0000 0.3827
vn 0.3827 0.0000 -0.9239
vn -0.3827 -0.0000 -0.9239
vn 0.6894 0.6867 -0.2305
vn -0.2556 0.7442 -0.6171
vn -0.6171 0.7442 0.2556
vn 0.2556 0.7442 0.6171
vn 0.6171 0.7442 -0.2556
vn -0.6171 0.7442 -0.2556
vn -0.2556 0.7442 0.6171
vn 0.6171 0.7442 0.2556
vn 0.4288 -0.8858 0.1776
vn -0.1776 -0.8858 0.4288
vn -0.4288 -0.8858 -0.1776
vn 0.4288 -0.8858 -0.1776
vn 0.1776 -0.8858 0.4288
vn -0.4288 -0.8858 0.1776
vn -0.1776 -0.8858 -0.4288
vn 0.1776 -0.8858 -0.4288
vn 0.3752 -0.3865 -0.8425
vn 0.3391 0.2844 -0.8967
vn -0.8852 0.3137 0.3435
vn 0.3523 -0.0901 -0.9315
vn 0.2626 0.6701 -0.6942
vn 0.7263 -0.6278 -0.2799
vn 0.8683 0.3016 -0.3939
vn 0.8852 0.3137 -0.3435
vn 0.9065 -0.0960 -0.4112
vn 0.6561 0.6936 -0.2976
vn 0.8683 0.3016 0.3939
vn 0.9065 -0.0960 0.4112
vn 0.6561 0.6936 0.2976
vn 0.7263 -0.6278 0.2799
vn -0.4044 0.0068 -0.9145
vn 0.3523 -0.0901 0.9315
vn 0.3752 -0.3865 0.8425
vn 0.3391 0.2844 0.8967
vn 0.6894 0.6867 0.2305
vn -0.3523 -0.0901 0.9315
vn -0.2626 0.6701 0.6942
vn -0.3752 -0.3865 0.8425
vn -0.3391 0.2844 0.8967
vn -0.3770 0.5640 0.7347
vn -0.9065 -0.0960 0.4112
vn -0.7263 -0.6278 0.2799
vn -0.8683 0.3016 0.3939
vn 0.3770 0.5640 0.7347
vn -0.9065 -0.0960 -0.4112
vn -0.6561 0.6936 -0.2976
vn -0.7263 -0.6278 -0.2799
vn -0.8683 0.3016 -0.3939
vn -0.3523 -0.0901 -0.9315
vn -0.2626 0.6701 -0.6942
vn -0.3752 -0.3865 -0.8425
vn -0.3391 0.2844 -0.8967
vn 0.4044 0.0068 0.9145
vn -0.3770 0.5640 -0.7347
vn 0.3770 0.5640 -0.7347
vn 0.4044 0.0068 -0.9145
vn -0.4044 0.0068 0.9145
vn -0.6894 0.6867 0.2305
vn -0.6894 0.6867 -0.2305
vn -0.8852 0.3137 -0.3435
vn 0.8852 0.3137 0.3435
vn 0.3335 -0.4905 -0.8051
vn 0.1566 0.9125 -0.3780
vn 0.3574 0.3574 -0.8629
vn 0.8051 -0.4905 -0.3335
vn 0.3780 0.9125 -0.1566
vn 0.8629 0.3574 -0.3574
vn 0.8051 -0.4905 0.3335
vn 0.3780 0.9125 0.1566
vn 0.8629 0.3574 0.3574
vn 0.3335 -0.4905 0.8051
vn 0.1566 0.9125 0.3780
vn 0.3574 0.3574 0.8629
vn -0.3335 -0.4905 0.8051
vn -0.1566 0.9125 0.3780
vn -0.3574 0.3574 0.8629
vn -0.8629 0.3574 0.3574
vn -0.8051 -0.4905 0.3335
vn -0.3780 0.9125 0.1566
vn -0.8629 0.3574 -0.3574
vn -0.8051 -0.4905 -0.3335
vn -0.3780 0.9125 -0.1566
vn -0.3574 0.3574 -0.8629
vn -0.3335 -0.4905 -0.8051
vn -0.1566 0.9125 -0.3780
vn 0.8850 0.2634 -0.3840
vn 0.8603 0.3472 0.3733
vn 0.3622 0.1715 0.9162
vn -0.3622 0.1715 0.9162
vn -0.8603 0.3472 0.3733
vn -0.8850 0.2634 -0.3840
vn -0.3672 -0.0529 -0.9287
vn 0.3672 -0.0529 -0.9287
vn -0.0439 -0.2104 0.9766
vn -0.6561 0.6936 0.2976
vn 0.2626 0.6701 0.6942
vn 0.0439 0.2104 -0.9766
vn -0.0000 0.9606 0.2778
vn 0.4280 -0.1904 0.8835
usemtl None
s off
f 41/1/1 33/2/1 34/3/1 42/4/1
f 42/4/2 34/3/2 35/5/2 43/6/2
f 43/6/3 35/5/3 36/7/3 44/8/3
f 44/8/4 36/7/4 37/9/4 45/10/4
f 45/10/5 37/9/5 38/11/5 46/12/5
f 46/12/6 38/11/6 39/13/6 47/14/6
f 47/14/7 39/13/7 40/15/7 48/16/7
f 12/17/8 10/18/8 61/19/8 62/20/8
f 1/21/9 3/22/9 5/23/9 7/24/9 9/25/9 11/26/9 13/27/9 15/28/9
f 48/29/10 40/30/10 33/2/10 41/1/10
f 49/31/11 56/32/11 16/33/11 2/34/11
f 56/32/12 55/35/12 14/36/12 16/33/12
f 55/35/13 54/37/13 12/17/13 14/36/13
f 54/37/14 53/38/14 10/18/14 12/17/14
f 53/38/15 52/39/15 8/40/15 10/18/15
f 52/39/16 51/41/16 6/42/16 8/40/16
f 51/41/17 50/43/17 4/44/17 6/42/17
f 50/43/18 49/45/18 2/46/18 4/44/18
f 32/47/19 24/48/19 17/49/19 25/50/19
f 31/51/20 23/52/20 24/48/20 32/47/20
f 30/53/21 22/54/21 23/52/21 31/51/21
f 29/55/22 21/56/22 22/54/22 30/53/22
f 28/57/23 20/58/23 21/56/23 29/55/23
f 27/59/24 19/60/24 20/58/24 28/57/24
f 26/61/25 18/62/25 19/60/25 27/59/25
f 25/63/26 17/64/26 18/62/26 26/61/26
f 26/61/27 33/2/27 40/30/27 25/63/27
f 27/59/28 34/3/28 33/2/28 26/61/28
f 28/57/29 35/5/29 34/3/29 27/59/29
f 29/55/30 36/7/30 35/5/30 28/57/30
f 30/53/31 37/9/31 36/7/31 29/55/31
f 31/51/32 38/11/32 37/9/32 30/53/32
f 32/47/33 39/13/33 38/11/33 31/51/33
f 25/50/34 40/15/34 39/13/34 32/47/34
f 48/16/35 1/65/35 15/66/35 47/14/35
f 47/14/36 15/66/36 13/67/36 46/12/36
f 46/12/37 13/67/37 11/68/37 45/10/37
f 45/10/38 11/68/38 9/69/38 44/8/38
f 44/8/39 9/69/39 7/70/39 43/6/39
f 43/6/40 7/70/40 5/71/40 42/4/40
f 3/72/41 41/1/41 42/4/41 5/71/41
f 1/73/42 48/29/42 41/1/42 3/72/42
f 18/62/43 17/64/43 49/45/43 50/43/43
f 19/60/44 18/62/44 50/43/44 51/41/44
f 20/58/45 19/60/45 51/41/45 52/39/45
f 21/56/46 20/58/46 52/39/46 53/38/46
f 22/54/47 21/56/47 53/38/47 54/37/47
f 23/52/48 22/54/48 54/37/48 55/35/48
f 24/48/49 23/52/49 55/35/49 56/32/49
f 17/49/50 24/48/50 56/32/50 49/31/50
f 62/20/8 61/19/8 69/74/8 70/75/8
f 10/18/8 8/40/8 60/76/8 61/19/8
f 8/40/8 6/42/8 59/77/8 60/76/8
f 6/42/8 4/44/8 57/78/8 59/77/8
f 4/44/8 2/46/8 58/79/8 57/78/8
f 2/34/8 16/33/8 64/80/8 58/81/8
f 16/33/8 14/36/8 63/82/8 64/80/8
f 14/36/8 12/17/8 62/20/8 63/82/8
f 72/83/51 71/84/51 79/85/51 80/86/51
f 60/76/8 59/77/8 67/87/8 68/88/8
f 57/78/8 58/79/8 66/89/8 65/90/8
f 58/81/8 64/80/8 72/83/8 66/91/8
f 63/82/8 62/20/8 70/75/8 71/84/8
f 61/19/8 60/76/8 68/88/8 69/74/8
f 59/77/8 57/78/8 65/90/8 67/87/8
f 64/80/8 63/82/8 71/84/8 72/83/8
f 79/85/52 78/92/52 86/93/52 87/94/52
f 70/75/53 69/74/53 77/95/53 78/92/53
f 68/88/54 67/87/54 75/96/54 76/97/54
f 65/90/55 66/89/55 74/98/55 73/99/55
f 66/91/56 72/83/56 80/86/56 74/100/56
f 71/84/57 70/75/57 78/92/57 79/85/57
f 69/74/58 68/88/58 76/97/58 77/95/58
f 67/87/59 65/90/59 73/99/59 75/96/59
f 98/101/60 97/102/60 90/103/60 89/104/60
f 77/95/61 76/97/61 84/105/61 85/106/61
f 75/96/62 73/99/62 81/107/62 83/108/62
f 80/86/63 79/85/63 87/94/63 88/109/63
f 78/92/64 77/95/64 85/106/64 86/93/64
f 76/97/65 75/96/65 83/108/65 84/105/65
f 73/99/66 74/98/66 82/110/66 81/107/66
f 74/100/67 80/86/67 88/109/67 82/111/67
f 111/112/68 116/113/68 150/114/68 145/115/68
f 97/116/69 99/117/69 96/118/69 90/119/69
f 101/120/70 100/121/70 94/122/70 95/123/70
f 103/124/71 102/125/71 92/126/71 93/127/71
f 104/128/72 98/101/72 89/104/72 91/129/72
f 99/117/73 101/120/73 95/123/73 96/118/73
f 100/121/74 103/124/74 93/127/74 94/122/74
f 102/125/75 104/128/75 91/129/75 92/126/75
f 84/105/76 83/108/76 104/128/76 102/125/76
f 86/93/77 85/106/77 103/124/77 100/121/77
f 88/109/78 87/94/78 101/120/78 99/117/78
f 83/108/79 81/107/79 98/101/79 104/128/79
f 85/106/80 84/105/80 102/125/80 103/124/80
f 87/94/81 86/93/81 100/121/81 101/120/81
f 82/111/82 88/109/82 99/117/82 97/116/82
f 81/107/83 82/110/83 97/102/83 98/101/83
f 106/130/84 148/131/84 110/132/84 111/112/84
f 147/133/85 146/134/85 108/135/85 109/136/85
f 144/137/86 131/138/86 95/123/86 94/122/86
f 148/131/87 147/133/87 109/136/87 110/132/87
f 146/134/88 105/139/88 107/140/88 108/135/88
f 111/112/89 110/132/89 115/141/89 116/113/89
f 109/136/90 108/135/90 113/142/90 114/143/90
f 145/115/91 150/114/91 91/129/91 89/104/91
f 110/132/92 109/136/92 114/143/92 115/141/92
f 108/135/93 107/140/93 112/144/93 113/142/93
f 114/143/94 113/142/94 179/145/94 180/146/94
f 115/141/95 114/143/95 180/146/95 181/147/95 178/148/95 191/149/95 118/150/95 119/151/95
f 113/142/96 112/144/96 117/152/96 186/153/96 179/145/96
f 116/113/97 115/141/97 119/151/97 120/154/97
f 138/155/98 149/156/98 90/119/98 96/118/98
f 119/151/99 118/150/99 123/157/99 124/158/99
f 120/154/100 119/151/100 124/158/100 125/159/100
f 118/150/101 190/160/101 189/161/101 122/162/101 123/157/101
f 116/113/102 120/154/102 130/163/102 150/114/102
f 124/158/103 123/157/103 127/164/103 128/165/103
f 122/162/104 188/166/104 192/167/104
f 125/159/105 124/158/105 128/165/105 129/168/105
f 123/157/106 122/162/106 192/167/106 193/169/106 127/164/106
f 125/159/107 129/168/107 144/137/107 137/170/107
f 128/165/108 127/164/108 194/171/108 177/172/108 182/173/108 195/174/108 134/175/108 135/176/108
f 129/168/109 128/165/109 135/176/109 136/177/109
f 127/164/110 193/169/110 194/171/110
f 120/154/111 125/159/111 137/170/111 130/163/111
f 135/178/112 134/179/112 141/180/112 142/181/112
f 133/182/113 132/183/113 139/184/113 140/185/113
f 136/186/114 135/178/114 142/181/114 143/187/114
f 134/179/115 133/182/115 140/185/115 141/180/115
f 142/181/116 141/180/116 147/133/116 148/131/116
f 140/185/117 139/184/117 105/139/117 146/134/117
f 143/187/118 142/181/118 148/131/118 106/130/118
f 141/180/119 140/185/119 146/134/119 147/133/119
f 130/163/120 137/170/120 93/127/120 92/126/120
f 143/187/121 106/130/121 149/156/121 138/155/121
f 106/130/122 111/112/122 145/115/122 149/188/122
f 149/188/123 145/115/123 89/104/123 90/103/123
f 137/170/124 144/137/124 94/122/124 93/127/124
f 129/168/125 136/177/125 131/138/125 144/137/125
f 136/186/126 143/187/126 138/155/126 131/189/126
f 131/189/127 138/155/127 96/118/127 95/123/127
f 150/114/128 130/163/128 92/126/128 91/129/128
f 175/190/129 151/191/129 153/192/129 154/193/129
f 174/194/130 164/195/130 152/196/130
f 151/191/131 174/194/131 152/196/131 153/192/131
f 154/193/132 153/192/132 156/197/132 157/198/132
f 152/196/133 164/199/133 155/200/133
f 153/192/134 152/196/134 155/200/134 156/197/134
f 157/198/135 156/197/135 159/201/135 160/202/135
f 155/200/136 164/203/136 158/204/136
f 156/197/137 155/200/137 158/204/137 159/201/137
f 160/202/138 159/201/138 162/205/138 163/206/138
f 158/204/139 164/207/139 161/208/139
f 159/201/140 158/204/140 161/208/140 162/205/140
f 163/206/141 162/205/141 166/209/141 167/210/141
f 161/208/142 164/211/142 165/212/142
f 162/205/143 161/208/143 165/212/143 166/209/143
f 166/209/144 165/212/144 168/213/144 169/214/144
f 167/210/145 166/209/145 169/214/145 170/215/145
f 165/212/146 164/216/146 168/213/146
f 169/217/147 168/218/147 171/219/147 172/220/147
f 170/221/148 169/217/148 172/220/148 173/222/148
f 168/218/149 164/223/149 171/219/149
f 172/220/150 171/219/150 174/194/150 151/191/150
f 173/222/151 172/220/151 151/191/151 175/190/151
f 171/219/152 164/224/152 174/194/152
f 154/193/153 157/198/153 112/144/153 107/140/153
f 157/198/154 160/202/154 117/152/154 112/144/154
f 160/202/155 163/206/155 121/225/155 117/152/155
f 163/206/156 167/210/156 126/226/156 121/225/156
f 167/210/157 170/215/157 132/227/157 126/226/157
f 170/221/158 173/222/158 139/184/158 132/183/158
f 173/222/159 175/190/159 105/139/159 139/184/159
f 175/190/160 154/193/160 107/140/160 105/139/160
f 176/228/161 181/229/161 180/230/161 179/231/161 186/232/161 183/233/161 184/234/161 185/235/161 187/236/161
f 185/237/162 184/238/162 126/226/162 132/227/162 133/239/162
f 189/161/163 188/166/163 122/162/163
f 183/240/163 186/153/163 117/152/163 121/225/163
f 178/241/164 177/242/164 194/243/164 193/244/164 192/245/164 188/246/164 189/247/164 190/248/164 191/249/164
f 184/238/104 183/240/104 121/225/104 126/226/104
f 177/250/165 178/251/165 181/229/165 176/228/165 182/252/165
f 182/253/166 176/228/166 187/236/166 195/254/166
f 195/174/110 187/255/110 185/237/110 133/239/110 134/175/110
f 191/149/94 190/160/94 118/150/94
