# Blender v2.82 (sub 7) OBJ File: 'Chess_Board.blend'
# www.blender.org
mtllib Chess_Board.mtl
o Chess_Board_Cube
v -0.060000 0.000000 0.060000
v -0.042857 0.000000 0.060000
v -0.025714 0.000000 0.060000
v -0.008571 0.000000 0.060000
v 0.008571 0.000000 0.060000
v 0.025714 0.000000 0.060000
v 0.042857 0.000000 0.060000
v 0.060000 0.000000 0.060000
v -0.060000 0.000000 0.042857
v -0.042857 0.000000 0.042857
v -0.025714 0.000000 0.042857
v -0.008571 0.000000 0.042857
v 0.008571 0.000000 0.042857
v 0.025714 0.000000 0.042857
v 0.042857 0.000000 0.042857
v 0.060000 0.000000 0.042857
v -0.060000 0.000000 0.025714
v -0.042857 0.000000 0.025714
v -0.025714 0.000000 0.025714
v -0.008571 0.000000 0.025714
v 0.008571 0.000000 0.025714
v 0.025714 0.000000 0.025714
v 0.042857 0.000000 0.025714
v 0.060000 0.000000 0.025714
v -0.060000 0.000000 0.008571
v -0.042857 0.000000 0.008571
v -0.025714 0.000000 0.008571
v -0.008571 0.000000 0.008571
v 0.008571 0.000000 0.008571
v 0.025714 0.000000 0.008571
v 0.042857 0.000000 0.008571
v 0.060000 0.000000 0.008571
v -0.060000 0.000000 -0.008571
v -0.042857 0.000000 -0.008571
v -0.025714 0.000000 -0.008571
v -0.008571 0.000000 -0.008571
v 0.008571 0.000000 -0.008571
v 0.025714 0.000000 -0.008571
v 0.042857 0.000000 -0.008571
v 0.060000 0.000000 -0.008571
v -0.060000 0.000000 -0.025714
v -0.042857 0.000000 -0.025714
v -0.025714 0.000000 -0.025714
v -0.008571 0.000000 -0.025714
v 0.008571 0.000000 -0.025714
v 0.025714 0.000000 -0.025714
v 0.042857 0.000000 -0.025714
v 0.060000 0.000000 -0.025714
v -0.060000 0.000000 -0.042857
v -0.042857 0.000000 -0.042857
v -0.025714 0.000000 -0.042857
v -0.008571 0.000000 -0.042857
v 0.008571 0.000000 -0.042857
v 0.025714 0.000000 -0.042857
v 0.042857 0.000000 -0.042857
v 0.060000 0.000000 -0.042857
v -0.060000 0.000000 -0.060000
v -0.042857 0.000000 -0.060000
v -0.025714 0.000000 -0.060000
v -0.008571 0.000000 -0.060000
v 0.008571 0.000000 -0.060000
v 0.025714 0.000000 -0.060000
v 0.042857 0.000000 -0.060000
v 0.060000 0.000000 -0.060000
vt 0.142857 0.000000
vt 0.285714 0.000000
vt 0.285714 0.142857
vt 0.142857 0.142857
vt 0.428571 0.000000
vt 0.571429 0.000000
vt 0.571429 0.142857
vt 0.428571 0.142857
vt 0.714286 0.000000
vt 0.857143 0.000000
vt 0.857143 0.142857
vt 0.714286 0.142857
vt 0.000000 0.142857
vt 0.142857 0.285714
vt 0.000000 0.285714
vt 0.428571 0.285714
vt 0.285714 0.285714
vt 0.714286 0.285714
vt 0.571429 0.285714
vt 1.000000 0.142857
vt 1.000000 0.285714
vt 0.857143 0.285714
vt 0.285714 0.428571
vt 0.142857 0.428571
vt 0.571429 0.428571
vt 0.428571 0.428571
vt 0.857143 0.428571
vt 0.714286 0.428571
vt 0.000000 0.428571
vt 0.142857 0.571429
vt 0.000000 0.571429
vt 0.428571 0.571429
vt 0.285714 0.571429
vt 0.714286 0.571429
vt 0.571429 0.571429
vt 1.000000 0.428571
vt 1.000000 0.571429
vt 0.857143 0.571429
vt 0.285714 0.714286
vt 0.142857 0.714286
vt 0.571429 0.714286
vt 0.428571 0.714286
vt 0.857143 0.714286
vt 0.714286 0.714286
vt 0.000000 0.714286
vt 0.142857 0.857143
vt 0.000000 0.857143
vt 0.428571 0.857143
vt 0.285714 0.857143
vt 0.714286 0.857143
vt 0.571429 0.857143
vt 1.000000 0.714286
vt 1.000000 0.857143
vt 0.857143 0.857143
vt 0.285714 1.000000
vt 0.142857 1.000000
vt 0.571429 1.000000
vt 0.428571 1.000000
vt 0.857143 1.000000
vt 0.714286 1.000000
vt 0.000000 0.000000
vt 1.000000 0.000000
vt 0.000000 1.000000
vt 1.000000 1.000000
vn 0.0000 1.0000 0.0000
usemtl White
s off
f 2/1/1 3/2/1 11/3/1 10/4/1
f 4/5/1 5/6/1 13/7/1 12/8/1
f 6/9/1 7/10/1 15/11/1 14/12/1
f 9/13/1 10/4/1 18/14/1 17/15/1
f 11/3/1 12/8/1 20/16/1 19/17/1
f 13/7/1 14/12/1 22/18/1 21/19/1
f 15/11/1 16/20/1 24/21/1 23/22/1
f 18/14/1 19/17/1 27/23/1 26/24/1
f 20/16/1 21/19/1 29/25/1 28/26/1
f 22/18/1 23/22/1 31/27/1 30/28/1
f 25/29/1 26/24/1 34/30/1 33/31/1
f 27/23/1 28/26/1 36/32/1 35/33/1
f 29/25/1 30/28/1 38/34/1 37/35/1
f 31/27/1 32/36/1 40/37/1 39/38/1
f 34/30/1 35/33/1 43/39/1 42/40/1
f 36/32/1 37/35/1 45/41/1 44/42/1
f 38/34/1 39/38/1 47/43/1 46/44/1
f 41/45/1 42/40/1 50/46/1 49/47/1
f 43/39/1 44/42/1 52/48/1 51/49/1
f 45/41/1 46/44/1 54/50/1 53/51/1
f 47/43/1 48/52/1 56/53/1 55/54/1
f 50/46/1 51/49/1 59/55/1 58/56/1
f 52/48/1 53/51/1 61/57/1 60/58/1
f 54/50/1 55/54/1 63/59/1 62/60/1
usemtl Black
f 1/61/1 2/1/1 10/4/1 9/13/1
f 3/2/1 4/5/1 12/8/1 11/3/1
f 5/6/1 6/9/1 14/12/1 13/7/1
f 7/10/1 8/62/1 16/20/1 15/11/1
f 10/4/1 11/3/1 19/17/1 18/14/1
f 12/8/1 13/7/1 21/19/1 20/16/1
f 14/12/1 15/11/1 23/22/1 22/18/1
f 17/15/1 18/14/1 26/24/1 25/29/1
f 19/17/1 20/16/1 28/26/1 27/23/1
f 21/19/1 22/18/1 30/28/1 29/25/1
f 23/22/1 24/21/1 32/36/1 31/27/1
f 26/24/1 27/23/1 35/33/1 34/30/1
f 28/26/1 29/25/1 37/35/1 36/32/1
f 30/28/1 31/27/1 39/38/1 38/34/1
f 33/31/1 34/30/1 42/40/1 41/45/1
f 35/33/1 36/32/1 44/42/1 43/39/1
f 37/35/1 38/34/1 46/44/1 45/41/1
f 39/38/1 40/37/1 48/52/1 47/43/1
f 42/40/1 43/39/1 51/49/1 50/46/1
f 44/42/1 45/41/1 53/51/1 52/48/1
f 46/44/1 47/43/1 55/54/1 54/50/1
f 49/47/1 50/46/1 58/56/1 57/63/1
f 51/49/1 52/48/1 60/58/1 59/55/1
f 53/51/1 54/50/1 62/60/1 61/57/1
f 55/54/1 56/53/1 64/64/1 63/59/1
